<?xml version="1.0" encoding="UTF-8"?><svg id="Capa_2" xmlns="http://www.w3.org/2000/svg" width="50.49" height="50" viewBox="0 0 50.49 50"><defs><style>.cls-1{fill:#fff;}</style></defs><g id="Capa_1-2"><g><g><path class="cls-1" d="m21.32.08c-2.62.4-4.58,1.64-5.91,3.7-1.97,3.08-1.95,6.83-1.87,8.25.04.63-1.61.83-2.03.85-.95.04-1.91-.32-2.61-.94-.93-.82-1.45-2.03-1.56-3.26-.09-.88.01-1.83-.44-2.58-.86-1.42-3.14-1.11-3.57.49-.2.72.04,1.5.37,2.17,1.5,3.16,4.98,5.28,8.51,4.91.58-.05,1.05-.17,1.37-.25.1,5.02,0,8.51-.31,10.47-1.62-.17-2.86-.18-3.74-.05-2.02.31-2.9,1.35-2.63,3.13.12.81.55,1.46,1.26,1.96.72.5,1.48.68,2.29.56,1.99-.31,3.49-1.16,4.48-2.59.36.1,1.01.29,1.92.57s1.53.45,1.83.53c.2.06.59.16,1.17.3-.02-.07-.04-.14-.06-.21-.05-.18-.1-.37-.13-.57-.04-.21-.09-.42-.12-.64-.04-.27-.07-.55-.09-.81-.01-.09-.02-.17-.02-.25v-.09c0-.13,0-.26,0-.38,0-.17,0-.34,0-.51-.91-.15-2.01-.33-3.27-.55.86-2.49,1.2-6.47,1-11.91,2.47-.96,4.55-2.21,6.26-3.77.86-.84,1.5-1.8,1.92-2.9.42-1.1.54-2.26.36-3.47-.28-1.81-1.72-2.51-4.34-2.11l-.02-.02Zm-10.52,27.52c-.63.1-1.16.02-1.59-.23-.44-.26-.69-.59-.75-1.04s.11-.68.53-.74,1.59.15,3.52.66c-.51.81-1.08,1.26-1.7,1.36h0Zm10.84-19.62c-1.13,1.24-2.66,2.22-4.58,2.97,0-6.03,1.27-9.24,3.79-9.62,1.16-.18,1.86.57,2.11,2.26s-.18,3.14-1.31,4.39h0Z"/><path class="cls-1" d="m40.44,17.32c-.43-1.46-2.41-1.24-2.69.18-.12.58.11,1.16.11,1.75,0,.15-.01.3-.04.44-.26,1.32-1.71,2.18-3.03,2.01h-.04c-.34-2.05-1.13-3.63-2.36-4.76-1.22-1.12-2.43-1.59-3.63-1.4s-2.19.65-2.96,1.42c-1.94.29-3.38,1.45-4.32,3.47-.72,1.54-1.08,3.09-1.06,4.65,0,.12,0,.25,0,.38,0,.02-.01.06,0,.08,0,.09.01.17.02.26.02.26.04.54.09.81.04.23.07.44.12.64.04.19.09.39.13.57.05.2.11.4.18.59.06.2.13.38.2.56.05.13.1.26.16.39.06.13.12.25.18.37h0c.06.13.13.25.18.36.06.13.14.25.23.37.07.11.14.22.21.32.07.12.15.23.24.34.07.09.14.18.22.27.09.12.19.24.29.34,0,0,0,.01,0,.01.12.13.25.25.37.37.12.12.25.23.38.32.13.1.26.19.4.28.22.14.45.26.69.36.09.04.18.08.28.1.09.04.2.07.29.1.1.04.2.05.31.07.44.07.8.1.8.1.5.04.96.02,1.28,0-.06-.39-.11-.77-.16-1.17-.06-.45-.1-.89-.15-1.32-1.16-.42-1.81-1.08-2.11-1.44-.47-.56-.67-1.1-.95-1.81-.3-.74-.51-1.51-.64-2.33l-.03-.22c-.17-1.13-.21-2.13-.15-3,.01-.15.03-.29.04-.43.02-.1.03-.2.04-.3.02-.12.04-.24.07-.34.02-.13.06-.26.09-.37.21-.78.54-1.41,1-1.91-.01.04-.02.07-.03.1-.02.07-.04.13-.05.2-.15.73-.17,1.54-.03,2.44.07.47.25.91.51,1.31.28.4.66.77,1.15,1.12.09.06.17.12.27.18,1.12.7,2.41.94,3.83.73l1.67-.35c.02.17.05.39.03.64-.01.22-.05.41-.09.56.09-.02.21-.06.36-.04.4.06.64.42.77.6.12.18.23.4.34.93.14.66.15,1.19.15,1.35.01.51-.02,1.23-.18,2.1.2-.23.4-.48.58-.77,1.18-1.84,1.08-3.98.9-6.63h0c.18-.12.36-.21.53-.32.11-.07.22-.13.32-.2.15-.1.3-.2.44-.3.86-.59,1.53-1.17,2.01-1.63,1.21-1.16,2.53-2.43,2.19-3.54h0Zm-9.15,5.59c-1.05.16-2.03-.06-2.94-.65-.91-.61-1.45-1.47-1.63-2.62-.08-.52-.01-1.02.19-1.49,0-.02,0-.03.01-.04.21-.5.58-.78,1.07-.86,1.01-.15,1.82.36,2.46,1.54.64,1.17,1.11,2.52,1.4,4.04l-.56.09h0Z"/><path class="cls-1" d="m29.5,40.35l-.52-5.28c-.51-3.33-.63-5.18-.37-5.53.26-.36.75-.9,1.45-1.63s1.23-1.12,1.59-1.18.59-.02.7.09.2.35.26.72c.2,1.34.12,2.74-.26,4.2-.03,2.94.1,5.33.38,7.16s.72,2.71,1.31,2.62c.72-.11,1.46-.86,2.24-2.26.77-1.39,1.46-3.4,2.05-6-.2-3.16-.23-4.87-.09-5.15.13-.28.49-.79,1.08-1.55.58-.76,1.1-1.17,1.56-1.24s.77.49.95,1.67c.05.31.06.93.02,1.86-.03.93-.13,1.61-.28,2.05-.02.95-.53,8.67,1.52,8.56.33-.02.63-.21.88-.43,1.8-1.53,2.18-4.11,3.34-6.17.36-.64.85-1.27,1.56-1.48.91-.26,2.05.63,1.52,1.59-.32.59-.77.41-1.29.45-.67.06-1.23.3-1.67.83-.5.61-.74,1.38-1.01,2.12-.63,1.73-1.46,3.4-2.46,4.95-.94,1.45-2.73,2.23-4.29,1.09-.25-.18-.47-.84-.64-1.96s-.31-2.37-.43-3.76c-.67,2.27-1.42,4.03-2.25,5.3-.83,1.26-1.86,1.98-3.09,2.17s-2.1-.01-2.6-.61c-.5-.59-.88-1.67-1.12-3.22h-.01Z"/></g><path class="cls-1" d="m.6,38.73c-.19,1.37-.39,2.75-.57,4.12-.09.69-.03.74.67.69,1.62-.13,3.24-.23,4.85-.41,1.89-.2,3.6.24,5.15,1.32,1.54,1.08,3.11,2.11,4.6,3.24,2.53,1.91,5.22,2.79,8.45,2.03,2.4-.58,4.88-.82,7.32-1.2.66-.1,1.29-.29,1.88-.58.24-.12.55-.15.74-.42.21-.29.25-.72.1-1.02-.24-.48-.91-.59-1.37-.64-2.49-.29-3.97.51-6.21.3-1.26-.12-2.26-.54-2.52-.66-.45-.19-1.15-.51-2.79-1.53-.04-.03-.56-.35-1.17-.85-.45-.37-.66-.59-.64-.85.01-.17.12-.37.28-.45.38-.18.93.31,1.62.85.13.1,1.65,1.29,3.29,2.1.35.17.97.48,1.78.47.31,0,.63-.05.95-.14,1.3-.39,1.55-1.59.55-2.5-.68-.62-1.49-1.07-2.24-1.59-2.26-1.58-4.36-3.34-6.4-5.21-2.57-2.35-5.63-3.59-9.13-3.62-1.36-.02-2.68.32-3.92.83-1.17.48-2.37.69-3.6.79-.63.05-.98.4-1.08,1.04-.18,1.29-.36,2.58-.54,3.87h-.01Z"/></g></g></svg>